<svg width="32" height="41" viewBox="0 0 32 41" fill="none" xmlns="http://www.w3.org/2000/svg">
<path d="M26.7271 21.7502C26.7663 18.7141 28.397 15.841 30.9837 14.2508C29.3518 11.9201 26.6184 10.4426 23.7747 10.3535C20.7417 10.0351 17.8012 12.1684 16.2556 12.1684C14.6801 12.1684 12.3004 10.385 9.73778 10.4378C6.39772 10.5457 3.28388 12.4449 1.65881 15.3649C-1.83441 21.4128 0.771237 30.3014 4.11743 35.1902C5.79163 37.584 7.74829 40.2579 10.3085 40.1633C12.8139 40.0593 13.7495 38.5656 16.7736 38.5656C19.7697 38.5656 20.6476 40.1633 23.2598 40.1029C25.9482 40.0593 27.642 37.6984 29.2574 35.2819C30.4601 33.5761 31.3859 31.6909 32 29.6962C28.8406 28.3598 26.7309 25.1806 26.7271 21.7502Z" fill="white"/>
<path d="M21.7943 7.13881C23.26 5.37917 23.9822 3.11748 23.8074 0.833984C21.5679 1.0692 19.4994 2.13949 18.0138 3.83161C16.5611 5.4849 15.8051 7.70681 15.9479 9.90302C18.1881 9.92614 20.3905 8.8848 21.7943 7.13881Z" fill="white"/>
</svg>
