<svg width="37" height="37" viewBox="0 0 37 37" fill="none" xmlns="http://www.w3.org/2000/svg">
<path d="M29.2904 9.25H7.70703C5.15272 9.25 3.08203 11.3207 3.08203 13.875V18.0697L13.623 21.5833H23.3744L33.9154 18.0697V13.875C33.9154 11.3207 31.8447 9.25 29.2904 9.25Z" fill="#0C8036" fill-opacity="0.2"/>
<path d="M15.4154 9.25V7.70833H21.582V9.25H24.6654V7.70833C24.6634 6.00626 23.2841 4.62694 21.582 4.625H15.4154C13.7133 4.62694 12.334 6.00626 12.332 7.70833V9.25H15.4154ZM13.623 21.5833L3.08203 18.0696V27.75C3.08482 30.3032 5.15386 32.3722 7.70703 32.375H29.2904C31.8435 32.3722 33.9126 30.3032 33.9154 27.75V18.0696L23.3744 21.5833H13.623Z" fill="#0C8036"/>
</svg>
