<svg width="37" height="37" viewBox="0 0 37 37" fill="none" xmlns="http://www.w3.org/2000/svg">
<path d="M23.1266 3.08301C17.9201 3.0852 13.4579 6.80555 12.5195 11.9268C17.001 9.4744 22.6221 11.1193 25.0745 15.6008C26.5885 18.3676 26.5885 21.715 25.0745 24.4817C30.9348 23.4082 34.8153 17.7872 33.7417 11.9269C32.803 6.80245 28.3363 3.08104 23.1266 3.08301Z" fill="#0C8036" fill-opacity="0.2"/>
<path d="M10.7904 33.9167C15.0476 33.9167 18.4987 30.4655 18.4987 26.2083C18.4987 21.9511 15.0476 18.5 10.7904 18.5C6.53317 18.5 3.08203 21.9511 3.08203 26.2083C3.08203 30.4655 6.53317 33.9167 10.7904 33.9167Z" fill="#0C8036"/>
<path d="M16.9577 10.792C12.2041 10.7925 8.22472 14.3958 7.75391 19.126C11.6633 17.4463 16.1941 19.2539 17.8737 23.1632C18.7079 25.1049 18.7079 27.304 17.8737 29.2457C22.957 28.7403 26.6681 24.2097 26.1627 19.1264C25.6923 14.3954 21.7119 10.7916 16.9577 10.792Z" fill="#0C8036" fill-opacity="0.5"/>
</svg>
