<svg width="27" height="27" viewBox="0 0 27 27" fill="none" xmlns="http://www.w3.org/2000/svg">
<g clip-path="url(#clip0_909_17895)">
<path d="M13.5 2.25C7.28663 2.25 2.25 7.28663 2.25 13.5C2.25 19.1149 6.36412 23.769 11.7428 24.6139V16.7513H8.88525V13.5H11.7428V11.0216C11.7428 8.20237 13.4213 6.64538 15.9919 6.64538C17.2226 6.64538 18.5096 6.86475 18.5096 6.86475V9.63225H17.0921C15.6937 9.63225 15.2584 10.4996 15.2584 11.3895V13.5H18.378L17.8796 16.7513H15.2584V24.6139C20.6359 23.7701 24.75 19.1138 24.75 13.5C24.75 7.28663 19.7134 2.25 13.5 2.25Z" fill="white"/>
</g>
<defs>
<clipPath id="clip0_909_17895">
<rect width="27" height="27" fill="white"/>
</clipPath>
</defs>
</svg>
