<svg width="578" height="239" viewBox="0 0 578 239" fill="none" xmlns="http://www.w3.org/2000/svg">
<path d="M537.017 303.83C564.569 289.5 579.77 267.968 577.234 246.898C573.644 217.174 538.318 196.072 492.567 183.549C475.818 178.959 458.229 175.228 442.551 169.552C404.705 155.846 406.467 134.4 389.175 113.491C342.617 57.1619 212.71 98.2374 132.688 85.0364C80.6132 76.4473 44.151 48.5404 42.323 18.2579C42.1912 16.0864 42.1747 13.7966 40.2479 11.9047C38.9139 10.6039 36.7894 9.62568 34.632 8.75493C0.953003 -4.89747 -49.6725 0.154998 -79.7118 14.8071C-112.93 31.018 -128.13 55.9364 -137.122 80.1667C-144.303 99.5058 -148.42 119.619 -141.289 138.969C-121.955 191.493 -27.7194 224.452 11.5755 273.321C20.057 283.878 25.9199 295.111 35.9824 305.216C61.5751 330.909 111.031 346.066 160.372 355.849C221.208 367.91 289.522 373.672 349.534 360.374C387.973 351.86 420.384 336.101 459.086 327.974C486.045 322.287 515.887 314.816 537.017 303.83Z" fill="white"/>
</svg>
