<svg width="27" height="27" viewBox="0 0 27 27" fill="none" xmlns="http://www.w3.org/2000/svg">
<g clip-path="url(#clip0_909_17901)">
<path d="M13.5 2.25C16.5566 2.25 16.938 2.26125 18.1372 2.3175C19.3354 2.37375 20.151 2.56163 20.8687 2.84063C21.6112 3.12638 22.2367 3.51337 22.8623 4.13775C23.4343 4.70013 23.8769 5.38041 24.1594 6.13125C24.4373 6.84787 24.6263 7.66462 24.6825 8.86275C24.7354 10.062 24.75 10.4434 24.75 13.5C24.75 16.5566 24.7388 16.938 24.6825 18.1372C24.6263 19.3354 24.4373 20.151 24.1594 20.8687C23.8778 21.62 23.435 22.3004 22.8623 22.8623C22.2997 23.4341 21.6195 23.8767 20.8687 24.1594C20.1521 24.4373 19.3354 24.6263 18.1372 24.6825C16.938 24.7354 16.5566 24.75 13.5 24.75C10.4434 24.75 10.062 24.7388 8.86275 24.6825C7.66462 24.6263 6.849 24.4373 6.13125 24.1594C5.38012 23.8775 4.69972 23.4348 4.13775 22.8623C3.56558 22.3 3.12292 21.6197 2.84063 20.8687C2.56163 20.1521 2.37375 19.3354 2.3175 18.1372C2.26462 16.938 2.25 16.5566 2.25 13.5C2.25 10.4434 2.26125 10.062 2.3175 8.86275C2.37375 7.6635 2.56163 6.849 2.84063 6.13125C3.12214 5.37995 3.5649 4.69949 4.13775 4.13775C4.69988 3.56539 5.38023 3.1227 6.13125 2.84063C6.849 2.56163 7.6635 2.37375 8.86275 2.3175C10.062 2.26462 10.4434 2.25 13.5 2.25ZM13.5 7.875C12.0082 7.875 10.5774 8.46763 9.52252 9.52252C8.46763 10.5774 7.875 12.0082 7.875 13.5C7.875 14.9918 8.46763 16.4226 9.52252 17.4775C10.5774 18.5324 12.0082 19.125 13.5 19.125C14.9918 19.125 16.4226 18.5324 17.4775 17.4775C18.5324 16.4226 19.125 14.9918 19.125 13.5C19.125 12.0082 18.5324 10.5774 17.4775 9.52252C16.4226 8.46763 14.9918 7.875 13.5 7.875ZM20.8125 7.59375C20.8125 7.22079 20.6643 6.8631 20.4006 6.59938C20.1369 6.33566 19.7792 6.1875 19.4062 6.1875C19.0333 6.1875 18.6756 6.33566 18.4119 6.59938C18.1482 6.8631 18 7.22079 18 7.59375C18 7.96671 18.1482 8.3244 18.4119 8.58812C18.6756 8.85184 19.0333 9 19.4062 9C19.7792 9 20.1369 8.85184 20.4006 8.58812C20.6643 8.3244 20.8125 7.96671 20.8125 7.59375ZM13.5 10.125C14.3951 10.125 15.2536 10.4806 15.8865 11.1135C16.5194 11.7464 16.875 12.6049 16.875 13.5C16.875 14.3951 16.5194 15.2536 15.8865 15.8865C15.2536 16.5194 14.3951 16.875 13.5 16.875C12.6049 16.875 11.7464 16.5194 11.1135 15.8865C10.4806 15.2536 10.125 14.3951 10.125 13.5C10.125 12.6049 10.4806 11.7464 11.1135 11.1135C11.7464 10.4806 12.6049 10.125 13.5 10.125Z" fill="white"/>
</g>
<defs>
<clipPath id="clip0_909_17901">
<rect width="27" height="27" fill="white"/>
</clipPath>
</defs>
</svg>
