<svg width="27" height="27" viewBox="0 0 27 27" fill="none" xmlns="http://www.w3.org/2000/svg">
<g clip-path="url(#clip0_909_17904)">
<path d="M20.6269 20.6314H17.6287V15.9323C17.6287 14.8117 17.6062 13.3695 16.065 13.3695C14.5024 13.3695 14.2639 14.589 14.2639 15.8501V20.6314H11.2646V10.9688H14.1446V12.285H14.184C14.5868 11.5267 15.5655 10.7246 17.028 10.7246C20.0655 10.7246 20.628 12.7249 20.628 15.327V20.6314H20.6269ZM7.87837 9.64687C7.6495 9.64717 7.42282 9.60229 7.21132 9.51481C6.99983 9.42732 6.80768 9.29896 6.64589 9.13706C6.4841 8.97517 6.35586 8.78294 6.26851 8.57139C6.18116 8.35984 6.13643 8.13312 6.13687 7.90425C6.1371 7.55981 6.23945 7.22318 6.431 6.93691C6.62254 6.65065 6.89467 6.42761 7.21297 6.29601C7.53127 6.1644 7.88145 6.13014 8.21923 6.19756C8.557 6.26497 8.8672 6.43103 9.1106 6.67474C9.35399 6.91846 9.51965 7.22887 9.58663 7.56673C9.65361 7.90459 9.6189 8.25473 9.48688 8.57286C9.35486 8.89099 9.13148 9.16283 8.84496 9.354C8.55845 9.54518 8.22281 9.6471 7.87837 9.64687ZM9.38137 20.6314H6.37425V10.9688H9.3825V20.6314H9.38137ZM22.1287 3.375H4.87013C4.04212 3.375 3.375 4.0275 3.375 4.83412V22.1659C3.375 22.9725 4.04325 23.625 4.869 23.625H22.1243C22.95 23.625 23.625 22.9725 23.625 22.1659V4.83412C23.625 4.0275 22.95 3.375 22.1243 3.375H22.1287Z" fill="white"/>
</g>
<defs>
<clipPath id="clip0_909_17904">
<rect width="27" height="27" fill="white"/>
</clipPath>
</defs>
</svg>
