<svg width="45" height="45" viewBox="0 0 45 45" fill="none" xmlns="http://www.w3.org/2000/svg">
<path d="M22.9652 31.3407C22.0567 31.3407 21.1986 31.164 20.3911 30.8107C19.5835 30.4574 18.8811 29.9569 18.2839 29.3092C17.695 28.6615 17.2702 27.896 17.0094 27.0127L19.9494 26.2178C20.1597 26.9412 20.5425 27.5006 21.0977 27.896C21.6613 28.2829 22.2796 28.4722 22.9525 28.4638C23.5498 28.4638 24.084 28.325 24.555 28.0474C25.0261 27.7698 25.3962 27.3954 25.6654 26.9244C25.9346 26.4449 26.0692 25.9107 26.0692 25.3219C26.0692 24.4218 25.779 23.6689 25.1985 23.0633C24.6181 22.4576 23.8694 22.1548 22.9525 22.1548C22.6749 22.1548 22.4015 22.1926 22.1324 22.2683C21.8716 22.344 21.6192 22.4492 21.3753 22.5838L19.9873 20.1863L26.0944 14.9625L26.3594 15.6943H17.7161V12.83H28.8578V15.7069L23.9494 20.4261L23.9241 19.5302C25.0261 19.6059 25.964 19.913 26.7379 20.4513C27.5203 20.9897 28.1175 21.6837 28.5297 22.5333C28.9503 23.3829 29.1606 24.3124 29.1606 25.3219C29.1606 26.4659 28.8788 27.4922 28.3152 28.4007C27.76 29.3092 27.0113 30.0284 26.0692 30.5584C25.1355 31.0799 24.1008 31.3407 22.9652 31.3407Z" fill="#0C8036"/>
<path d="M43.3433 14.0149L39.1119 18.2687C39.4701 19.6343 39.6493 21.0448 39.6493 22.5C39.6493 31.9478 31.9701 39.6269 22.5224 39.6269C13.0522 39.6269 5.37313 31.9478 5.37313 22.5C5.37313 21.0224 5.55224 19.5896 5.91045 18.2239L1.6791 13.9701C0.604478 16.6119 0 19.4776 0 22.5C0 34.903 10.097 45 22.5 45C34.903 45 45 34.903 45 22.5C45 19.5 44.4179 16.6343 43.3433 14.0149ZM19.8134 5.57463C20.6866 5.4403 21.5821 5.37313 22.5 5.37313C23.4179 5.37313 24.3134 5.4403 25.1866 5.57463C30 6.33582 34.1418 9.11194 36.7388 12.9851L40.5896 9.13433C36.4925 3.60448 29.9104 0 22.5 0C15.1119 0 8.52985 3.58209 4.43284 9.11194L8.28358 12.9627C10.8806 9.08955 15.0224 6.33582 19.8134 5.57463Z" fill="#0C8036"/>
</svg>
