<svg width="45" height="45" viewBox="0 0 45 45" fill="none" xmlns="http://www.w3.org/2000/svg">
<path d="M17.2618 30.9748V28.325L25.0345 21.3977C25.6402 20.8593 26.0608 20.3504 26.2963 19.8709C26.5319 19.3914 26.6496 18.9287 26.6496 18.4829C26.6496 17.8772 26.5192 17.3389 26.2585 16.8678C25.9977 16.3883 25.636 16.0098 25.1733 15.7322C24.7191 15.4546 24.1933 15.3158 23.5961 15.3158C22.9652 15.3158 22.4058 15.463 21.9179 15.7574C21.4384 16.0434 21.064 16.4262 20.7949 16.9057C20.5257 17.3851 20.3995 17.9025 20.4163 18.4577H17.287C17.287 17.2463 17.5562 16.1906 18.0946 15.2905C18.6414 14.3905 19.39 13.6923 20.3406 13.196C21.2996 12.6996 22.4058 12.4515 23.6591 12.4515C24.82 12.4515 25.8631 12.7123 26.7884 13.2338C27.7137 13.7469 28.4414 14.462 28.9713 15.3789C29.5013 16.2874 29.7663 17.3347 29.7663 18.5208C29.7663 19.3872 29.6485 20.1148 29.413 20.7037C29.1774 21.2925 28.8241 21.8351 28.3531 22.3314C27.8904 22.8277 27.3142 23.3787 26.6244 23.9844L21.1103 28.8676L20.8327 28.1105H29.7663V30.9748H17.2618Z" fill="#0C8036"/>
<path d="M43.3433 14.0149L39.1119 18.2687C39.4701 19.6343 39.6493 21.0448 39.6493 22.5C39.6493 31.9478 31.9701 39.6269 22.5224 39.6269C13.0522 39.6269 5.37313 31.9478 5.37313 22.5C5.37313 21.0224 5.55224 19.5896 5.91045 18.2239L1.6791 13.9701C0.604478 16.6119 0 19.4776 0 22.5C0 34.903 10.097 45 22.5 45C34.903 45 45 34.903 45 22.5C45 19.5 44.4179 16.6343 43.3433 14.0149ZM19.8134 5.57463C20.6866 5.4403 21.5821 5.37313 22.5 5.37313C23.4179 5.37313 24.3134 5.4403 25.1866 5.57463C30 6.33582 34.1418 9.11194 36.7388 12.9851L40.5896 9.13433C36.4925 3.60448 29.9104 0 22.5 0C15.1119 0 8.52985 3.58209 4.43284 9.11194L8.28358 12.9627C10.8806 9.08955 15.0224 6.33582 19.8134 5.57463Z" fill="#0C8036"/>
</svg>
