<svg width="45" height="45" viewBox="0 0 45 45" fill="none" xmlns="http://www.w3.org/2000/svg">
<path d="M20.921 31V16.1486L17.5142 18.2306V14.8742L20.921 12.83H24.0251V31H20.921Z" fill="#0C8036"/>
<path d="M43.3433 14.0149L39.1119 18.2687C39.4701 19.6343 39.6493 21.0448 39.6493 22.5C39.6493 31.9478 31.9701 39.6269 22.5224 39.6269C13.0522 39.6269 5.37313 31.9478 5.37313 22.5C5.37313 21.0224 5.55224 19.5896 5.91045 18.2239L1.6791 13.9701C0.604478 16.6119 0 19.4776 0 22.5C0 34.903 10.097 45 22.5 45C34.903 45 45 34.903 45 22.5C45 19.5 44.4179 16.6343 43.3433 14.0149ZM19.8134 5.57463C20.6866 5.4403 21.5821 5.37313 22.5 5.37313C23.4179 5.37313 24.3134 5.4403 25.1866 5.57463C30 6.33582 34.1418 9.11194 36.7388 12.9851L40.5896 9.13433C36.4925 3.60448 29.9104 0 22.5 0C15.1119 0 8.52985 3.58209 4.43284 9.11194L8.28358 12.9627C10.8806 9.08955 15.0224 6.33582 19.8134 5.57463Z" fill="#0C8036"/>
</svg>
