<svg width="130" height="124" viewBox="0 0 130 124" fill="none" xmlns="http://www.w3.org/2000/svg">
<rect x="0.9375" width="129.061" height="124" rx="1.26531" fill="white"/>
<rect x="1.1273" y="0.189796" width="128.682" height="123.62" rx="1.07551" stroke="black" stroke-opacity="0.28" stroke-width="0.379592"/>
<path fill-rule="evenodd" clip-rule="evenodd" d="M36.2458 10.7539H38.9987V13.5068H41.7516V10.7539H50.0103V13.5068H58.269V16.2597H61.0219V13.5068H63.7748V10.7539H69.2806V13.5068H72.0335V10.7539H77.5393V16.2597H80.2922V21.7655H83.0451V19.0126H85.7979V16.2597H83.0451V13.5068H80.2922V10.7539H94.0566V13.5068H85.7979V16.2597H91.3037V19.0126H94.0566V24.5184H88.5508V21.7655H85.7979V27.2713H88.5508V35.53H94.0566V32.7771H107.821V38.2829H110.574V35.53H113.327V32.7771H116.08V35.53H113.327V38.2829H110.574V41.0358H113.327V43.7887H116.08V46.5415H107.821V49.2944H110.574V52.0473H116.08V57.5531H113.327V60.306H110.574V57.5531H105.068V63.0589H99.5624V65.8118H102.315V68.5647H105.068V65.8118H107.821V63.0589H113.327V65.8118H110.574V68.5647H113.327V71.3176H110.574V76.8234H113.327V79.5763H105.068V82.3292H110.574V87.835H113.327V85.0821H116.08V87.835H113.327V90.5879H107.821V85.0821H105.068V96.0937H110.574V93.3408H113.327V96.0937H116.08V98.8466H113.327V96.0937H110.574V101.599H113.327V109.858H116.08V112.611H107.821V107.105H110.574V104.352H105.068V101.599H102.315V104.352H99.5624V107.105H96.8095V109.858H94.0566V104.352H91.3037V90.5879H88.5508V87.835H85.7979V85.0821H83.0451V90.5879H85.7979V96.0937H88.5508V98.8466H85.7979V96.0937H83.0451V101.599H85.7979V104.352H80.2922V109.858H83.0451V112.611H80.2922V109.858H77.5393V112.611H72.0335V109.858H63.7748V112.611H58.269V109.858H55.5161V112.611H52.7632V109.858H55.5161V107.105H50.0103V109.858H47.2574V107.105H41.7516V112.611H36.2458V109.858H38.9987V107.105H41.7516V104.352H38.9987V101.599H36.2458V98.8466H38.9987V101.599H44.5045V96.0937H41.7516V93.3408H38.9987V96.0937H36.2458V90.5879H41.7516V93.3408H44.5045V96.0937H47.2574V87.835H44.5045V85.0821H47.2574V87.835H50.0103V85.0821H52.7632V82.3292H44.5045V79.5763H38.9987V82.3292H41.7516V85.0821H38.9987V87.835H33.4929V90.5879H27.9871V87.835H25.2342V90.5879H22.4813V87.835H19.7284V90.5879H14.2227V87.835H19.7284V79.5763H22.4813V82.3292H33.4929V85.0821H36.2458V79.5763H38.9987V76.8234H33.4929V79.5763H27.9871V76.8234H22.4813V68.5647H25.2342V71.3176H27.9871V65.8118H25.2342V63.0589H27.9871V60.306H25.2342V52.0473H22.4813V60.306H16.9756V57.5531H14.2227V54.8002H16.9756V52.0473H19.7284V49.2944H16.9756V46.5415H19.7284V43.7887H14.2227V32.7771H16.9756V35.53H25.2342V32.7771H27.9871V35.53H30.74V32.7771H36.2458V19.0126H38.9987V13.5068H36.2458V10.7539ZM14.2227 10.7539H33.4929V30.0242H14.2227V10.7539ZM96.8095 10.7539H116.08V30.0242H96.8095V10.7539ZM91.3037 27.2713H94.0566V30.0242H91.3037V27.2713ZM14.2227 63.0589H16.9756V65.8118H19.7284V76.8234H16.9756V74.0705H14.2227V71.3176H16.9756V68.5647H14.2227V63.0589ZM14.2227 79.5763H16.9756V82.3292H14.2227V79.5763ZM14.2227 93.3408H33.4929V112.611H14.2227V93.3408ZM88.5508 107.105H91.3037V109.858H88.5508V107.105ZM102.315 107.105H105.068V109.858H102.315V112.611H99.5624V109.858H102.315V107.105Z" fill="black"/>
<path fill-rule="evenodd" clip-rule="evenodd" d="M41.7497 13.5078H47.2555V19.0136H55.5142V21.7665H58.2671V24.5194H61.02V19.0136H66.5258V21.7665H72.0316V19.0136H77.5374V24.5194H83.0432V27.2723H85.7961V35.531H83.0432V41.0368H85.7961V38.2839H88.549V41.0368H91.3018V38.2839H94.0547V35.531H99.5605V41.0368H96.8076V43.7897H88.549V49.2955H80.2903V46.5426H83.0432V41.0368H80.2903V43.7897H74.7845V41.0368H72.0316V43.7897H66.5258V46.5426H77.5374V49.2955H72.0316V54.8013H74.7845V52.0484H77.5374V57.5541H80.2903V52.0484H94.0547V49.2955H96.8076V46.5426H99.5605V43.7897H102.313V38.2839H107.819V43.7897H105.066V46.5426H102.313V49.2955H96.8076V52.0484H99.5605V54.8013H94.0547V57.5541H91.3018V54.8013H88.549V57.5541H80.2903V60.307H77.5374V65.8128H80.2903V63.0599H83.0432V60.307H85.7961V63.0599H91.3018V60.307H96.8076V57.5541H102.313V54.8013H105.066V52.0484H107.819V54.8013H105.066V57.5541H102.313V60.307H99.5605V63.0599H96.8076V65.8128H94.0547V68.5657H83.0432V71.3186H88.549V74.0715H85.7961V76.8244H88.549V82.3302H83.0432V85.0831H80.2903V87.836H77.5374V93.3418H72.0316V96.0947H69.2787V98.8476H66.5258V101.6H63.7729V104.353H66.5258V107.106H63.7729V104.353H61.02V107.106H58.2671V104.353H52.7613V85.0831H55.5142V79.5773H58.2671V76.8244H63.7729V79.5773H66.5258V82.3302H69.2787V85.0831H72.0316V87.836H66.5258V90.5889H74.7845V79.5773H69.2787V76.8244H66.5258V74.0715H63.7729V71.3186H61.02V74.0715H58.2671V71.3186H61.02V68.5657H55.5142V65.8128H52.7613V60.307H55.5142V54.8013H52.7613V57.5541H44.5026V54.8013H41.7497V57.5541H38.9968V60.307H41.7497V63.0599H44.5026V60.307H50.0084V74.0715H55.5142V76.8244H50.0084V74.0715H47.2555V76.8244H41.7497V71.3186H38.9968V68.5657H36.2439V74.0715H33.491V76.8244H27.9852V71.3186H30.7381V68.5657H36.2439V65.8128H27.9852V63.0599H33.491V60.307H30.7381V57.5541H27.9852V52.0484H33.491V49.2955H30.7381V46.5426H27.9852V49.2955H25.2324V46.5426H22.4795V49.2955H19.7266V46.5426H22.4795V43.7897H25.2324V41.0368H22.4795V38.2839H25.2324V35.531H27.9852V41.0368H33.491V38.2839H30.7381V35.531H36.2439V38.2839H38.9968V41.0368H33.491V43.7897H30.7381V46.5426H33.491V49.2955H36.2439V43.7897H44.5026V46.5426H47.2555V43.7897H50.0084V49.2955H44.5026V54.8013H52.7613V52.0484H58.2671V49.2955H63.7729V43.7897H66.5258V38.2839H63.7729V41.0368H61.02V46.5426H58.2671V43.7897H55.5142V49.2955H52.7613V43.7897H55.5142V41.0368H47.2555V38.2839H44.5026V35.531H47.2555V32.7781H44.5026V27.2723H41.7497V32.7781H38.9968V27.2723H41.7497V24.5194H38.9968V21.7665H44.5026V19.0136H41.7497V13.5078ZM66.5258 13.5078H69.2787V16.2607H66.5258V13.5078ZM110.572 54.8013H113.325V57.5541H110.572V54.8013ZM96.8076 68.5657H99.5605V76.8244H105.066V74.0715H107.819V76.8244H105.066V79.5773H102.313V85.0831H96.8076V87.836H91.3018V82.3302H96.8076V79.5773H99.5605V76.8244H94.0547V79.5773H91.3018V76.8244H94.0547V74.0715H91.3018V71.3186H94.0547V74.0715H96.8076V68.5657ZM105.066 68.5657H110.572V71.3186H105.066V68.5657ZM27.9852 85.0831H33.491V87.836H27.9852V85.0831ZM80.2903 90.5889H83.0432V93.3418H80.2903V90.5889ZM94.0547 90.5889H102.313V98.8476H94.0547V90.5889ZM47.2555 96.0947H50.0084V104.353H44.5026V101.6H47.2555V96.0947ZM74.7845 96.0947H77.5374V98.8476H80.2903V104.353H77.5374V109.859H74.7845V107.106H69.2787V101.6H72.0316V98.8476H74.7845V96.0947ZM94.0547 101.6H96.8076V104.353H94.0547V101.6Z" fill="white"/>
<path fill-rule="evenodd" clip-rule="evenodd" d="M27.9883 35.5312H30.7412V38.2841H33.4941V41.037H27.9883V35.5312ZM107.822 38.2841H110.575V41.037H113.328V43.7899H116.081V46.5428H107.822V49.2957H110.575V52.0486H116.081V57.5544H113.328V54.8015H110.575V57.5544H105.069V63.0602H99.5636V60.3073H102.316V57.5544H96.8107V60.3073H91.3049V63.0602H94.0578V65.8131H91.3049V63.0602H85.7991V60.3073H83.0462V63.0602H80.2933V65.8131H83.0462V68.566H80.2933V74.0718H83.0462V79.5776H80.2933V76.8247H77.5404V79.5776H74.7875V74.0718H77.5404V68.566H74.7875V71.3189H72.0346V76.8247H69.2817V71.3189H72.0346V65.8131H66.5288V71.3189H63.7759V68.566H61.023V65.8131H55.5172V60.3073H58.2701V63.0602H61.023V60.3073H63.7759V57.5544H66.5288V52.0486H63.7759V49.2957H66.5288V52.0486H69.2817V54.8015H72.0346V57.5544H77.5404V60.3073H80.2933V57.5544H88.552V54.8015H91.3049V57.5544H94.0578V54.8015H99.5636V52.0486H96.8107V49.2957H102.316V46.5428H105.069V43.7899H107.822V38.2841ZM110.575 68.566H113.328V71.3189H110.575V68.566Z" fill="black"/>
<path d="M30.6421 13.6055H17.0742V20.3894V27.1733H30.6421V13.6055Z" fill="#999999"/>
<path d="M113.229 13.6055H99.6611V20.3894V27.1733H113.229V13.6055Z" fill="#999999"/>
<path d="M30.6421 96.1923H17.0742V102.976V109.76H30.6421V96.1923Z" fill="#999999"/>
<path d="M30.5431 13.7031H17.1719V20.3887V27.0743H30.5431V13.7031Z" fill="white"/>
<path d="M113.13 13.7031H99.7588V20.3887V27.0743H113.13V13.7031Z" fill="white"/>
<path d="M58.2687 21.7652H55.5158V23.1416V24.5181H58.2687V21.7652Z" fill="white"/>
<path d="M72.0332 21.7652H66.5274V23.1416V24.5181H69.2803V27.271H72.0332V21.7652Z" fill="white"/>
<path d="M83.0447 24.5181H77.539V27.271V30.0239H80.2919V32.7768H83.0447V35.5297H85.7976V27.271H83.0447V24.5181Z" fill="white"/>
<path d="M63.7745 35.5297H66.5274V38.2826H63.7745V41.0355H61.0216V38.2826H63.7745V36.9061V35.5297Z" fill="white"/>
<path d="M69.2803 57.5528H72.0332V60.3057H77.539V57.5528H80.2919V60.3057H77.539V65.8115H80.2919V68.5644H77.539V65.8115H74.7861V63.0586H69.2803V60.3057V57.5528Z" fill="white"/>
<path d="M66.5274 60.3057H63.7745V61.6822V63.0586H66.5274V60.3057Z" fill="white"/>
<path d="M63.7745 79.576H66.5274V82.3289H69.2803V85.0818H72.0332V87.8347H66.5274V82.3289H63.7745V85.0818H61.0216V82.3289H63.7745V80.9524V79.576Z" fill="white"/>
<path d="M30.5431 96.29H17.1719V102.976V109.661H30.5431V96.29Z" fill="white"/>
<path fill-rule="evenodd" clip-rule="evenodd" d="M50.0104 21.7656H55.5162V24.5185H58.2691V27.2714H61.022V30.0243H63.7749V21.7656H66.5278V24.5185H69.2807V27.2714H72.0336V21.7656H74.7865V24.5185H77.5394V30.0243H80.2923V27.2714H83.0452V30.0243H80.2923V32.7772H83.0452V35.5301H85.7981V27.2714H88.551V35.5301H94.0568V38.283H91.3039V41.0359H88.551V43.7888H85.7981V41.0359H83.0452V35.5301H80.2923V32.7772H77.5394V35.5301H74.7865V27.2714H72.0336V32.7772H69.2807V27.2714H66.5278V35.5301H72.0336V41.0359H69.2807V38.283H66.5278V35.5301H63.7749V38.283H61.022V41.0359H58.2691V35.5301H63.7749V32.7772H55.5162V30.0243H52.7633V35.5301H50.0104V38.283H47.2575V35.5301H50.0104V32.7772H47.2575V27.2714H50.0104V30.0243H52.7633V27.2714H55.5162V24.5185H50.0104V21.7656ZM74.7865 38.283H77.5394V41.0359H74.7865V38.283ZM25.2344 43.7888H27.9873V46.5417H25.2344V43.7888ZM38.9989 46.5417H44.5046V49.2946H41.7517V52.0475H38.9989V46.5417ZM58.2691 52.0475H61.022V57.5533H58.2691V52.0475ZM30.7402 54.8004H38.9989V57.5533H30.7402V54.8004ZM72.0336 57.5533H77.5394V60.3062H72.0336V57.5533ZM36.246 63.0591H41.7517V68.5648H47.2575V71.3177H41.7517V68.5648H38.9989V65.812H36.246V63.0591ZM80.2923 65.812H83.0452V68.5648H80.2923V65.812ZM30.7402 71.3177H33.4931V74.0706H30.7402V71.3177ZM58.2691 79.5764H63.7749V82.3293H66.5278V87.8351H63.7749V93.3409H66.5278V96.0938H63.7749V93.3409H58.2691V98.8467H61.022V101.6H58.2691V98.8467H55.5162V87.8351H58.2691V90.588H61.022V85.0822H58.2691V79.5764ZM96.8097 93.3409H99.5626V96.0938H96.8097V93.3409ZM72.0336 101.6H77.5394V104.352H80.2923V109.858H77.5394V104.352H72.0336V101.6Z" fill="black"/>
<path d="M58.2685 27.2734H55.5156V28.6499V30.0263H58.2685V27.2734Z" fill="white"/>
<path d="M27.9853 16.2617H19.7266V20.3911V24.5204H27.9853V16.2617Z" fill="black"/>
<path d="M110.572 16.2617H102.313V20.3911V24.5204H110.572V16.2617Z" fill="black"/>
<path d="M27.9853 98.8486H19.7266V102.978V107.107H27.9853V98.8486Z" fill="black"/>
</svg>
