<svg width="37" height="37" viewBox="0 0 37 37" fill="none" xmlns="http://www.w3.org/2000/svg">
<path d="M27.3443 22.5424L23.6042 25.9813C21.6811 27.6578 19.4216 28.9035 16.9774 29.6349L17.9698 34.2648C18.0205 34.5012 18.1261 34.7224 18.278 34.9104C18.4299 35.0985 18.6239 35.2482 18.8444 35.3475C19.0649 35.4468 19.3056 35.4928 19.5471 35.4819C19.7886 35.471 20.0242 35.4035 20.2348 35.2848L26.2555 31.889C27.1028 31.3742 27.7648 30.6034 28.1458 29.688C28.5267 28.7726 28.6071 27.7599 28.3753 26.7958L27.3443 22.5424ZM11.2016 13.5298L14.4217 9.70666L10.4059 8.73775C9.42966 8.39733 8.36318 8.42169 7.40346 8.80633C6.44375 9.19098 5.65566 9.90993 5.18474 10.8304L1.79278 16.8427C1.67393 17.0533 1.60629 17.2889 1.59533 17.5305C1.58437 17.7721 1.6304 18.0128 1.72969 18.2333C1.82899 18.4538 1.97876 18.6478 2.16691 18.7997C2.35506 18.9516 2.57631 19.0572 2.81278 19.1077L7.54993 20.1232C8.33528 17.7125 9.57481 15.4745 11.2016 13.5298ZM25.7983 13.5921C26.2556 13.5921 26.7027 13.4564 27.083 13.2023C27.4633 12.9482 27.7597 12.5871 27.9347 12.1645C28.1098 11.742 28.1556 11.277 28.0663 10.8284C27.9771 10.3798 27.7569 9.96779 27.4335 9.64438C27.11 9.32097 26.698 9.10072 26.2494 9.0115C25.8008 8.92227 25.3359 8.96806 24.9133 9.14309C24.4908 9.31812 24.1296 9.61452 23.8755 9.99481C23.6214 10.3751 23.4858 10.8222 23.4858 11.2796C23.486 11.8928 23.7297 12.4809 24.1633 12.9145C24.597 13.3481 25.185 13.5918 25.7983 13.5921Z" fill="#0C8036"/>
<path d="M34.8423 3.17928C34.7727 2.91523 34.6343 2.67436 34.4413 2.48127C34.2482 2.28819 34.0073 2.1498 33.7432 2.08024C30.5807 1.25817 27.2503 1.34632 24.1357 2.33454C21.0211 3.32275 18.2491 5.17081 16.139 7.66579L11.2001 13.5298C8.73286 16.4726 7.16767 20.0651 6.69258 23.8759C6.66211 24.1101 6.68583 24.3481 6.76192 24.5717C6.83801 24.7953 6.96443 24.9984 7.13143 25.1654L11.9107 29.9447C12.0538 30.0879 12.2238 30.2015 12.4108 30.279C12.5978 30.3565 12.7983 30.3964 13.0007 30.3964C13.0451 30.3964 13.0895 30.3941 13.1347 30.3904C17.0039 30.0706 20.6706 28.5263 23.6026 25.9814L29.2499 20.7888C31.7537 18.6843 33.6085 15.9121 34.5985 12.7947C35.5886 9.67726 35.6731 6.34283 34.8423 3.17928ZM25.7968 13.592C25.3394 13.592 24.8923 13.4564 24.512 13.2023C24.1317 12.9482 23.8353 12.587 23.6603 12.1645C23.4853 11.7419 23.4395 11.277 23.5287 10.8284C23.6179 10.3798 23.8382 9.96776 24.1616 9.64435C24.485 9.32094 24.897 9.1007 25.3456 9.01147C25.7942 8.92224 26.2592 8.96804 26.6817 9.14306C27.1043 9.31809 27.4654 9.61449 27.7195 9.99478C27.9736 10.3751 28.1093 10.8222 28.1093 11.2795C28.109 11.8928 27.8653 12.4808 27.4317 12.9145C26.9981 13.3481 26.41 13.5918 25.7968 13.592Z" fill="#0C8036" fill-opacity="0.2"/>
</svg>
