<svg width="210" height="143" viewBox="0 0 210 143" fill="none" xmlns="http://www.w3.org/2000/svg">
<path d="M241.854 12.0957C230.419 3.86493 213.236 -0.675995 196.421 0.0816345C172.701 1.15414 155.861 11.707 145.866 25.3741C142.203 30.3775 139.226 35.6318 134.697 40.3154C123.759 51.621 106.644 51.0945 89.9582 56.2603C45.0053 70.1684 77.7849 108.975 67.2501 132.88C60.3957 148.437 38.1251 159.329 13.9586 159.875C12.2257 159.914 10.3984 159.919 8.88854 160.495C7.8505 160.894 7.06984 161.528 6.37496 162.173C-4.52012 172.234 -0.48808 187.357 11.2048 196.33C24.1417 206.254 44.0273 210.795 63.3639 213.481C78.7972 215.626 94.8481 216.856 110.29 214.725C152.206 208.95 178.509 180.799 217.508 169.06C225.932 166.527 234.897 164.775 242.961 161.769C263.464 154.124 275.561 139.35 283.367 124.61C292.993 106.437 297.591 86.0297 286.979 68.1021C280.185 56.6194 267.608 46.9373 261.122 35.3759C256.584 27.3223 250.622 18.4077 241.854 12.0957Z" fill="black"/>
</svg>
