<svg width="601" height="368" viewBox="0 0 601 368" fill="none" xmlns="http://www.w3.org/2000/svg">
<path d="M560.017 483.288C587.569 460.437 602.77 426.1 600.234 392.501C596.644 345.101 561.318 311.45 515.567 291.479C498.818 284.159 481.229 278.21 465.551 269.159C427.705 247.302 429.467 213.102 412.175 179.76C365.617 89.9323 235.71 155.435 155.688 134.383C103.613 120.686 67.151 76.1839 65.323 27.893C65.1912 24.4302 65.1747 20.7787 63.2479 17.7616C61.9139 15.6874 59.7894 14.1274 57.632 12.7388C23.953 -9.03238 -26.6725 -0.975311 -56.7118 22.3902C-89.9296 48.2413 -105.13 87.978 -114.122 126.618C-121.303 157.457 -125.42 189.531 -118.289 220.388C-98.9546 304.147 -4.71939 356.707 34.5755 434.637C43.057 451.471 48.9199 469.385 58.9824 485.5C84.5751 526.471 134.031 550.642 183.372 566.242C244.208 585.476 312.522 594.664 372.534 573.459C410.973 559.882 443.384 534.751 482.086 521.791C509.045 512.722 538.887 500.808 560.017 483.288Z" fill="black"/>
</svg>
