<svg width="27" height="27" viewBox="0 0 27 27" fill="none" xmlns="http://www.w3.org/2000/svg">
<g clip-path="url(#clip0_909_17898)">
<path d="M24.9309 6.3628C24.072 6.7427 23.1612 6.9922 22.2286 7.10305C23.2116 6.51516 23.9473 5.58994 24.2986 4.4998C23.3761 5.0488 22.3648 5.43355 21.3106 5.64167C20.6026 4.88407 19.664 4.38163 18.6409 4.21245C17.6179 4.04328 16.5676 4.21685 15.6533 4.70618C14.739 5.19551 14.0121 5.97319 13.5854 6.91831C13.1587 7.86343 13.0562 8.92305 13.2939 9.93242C11.4231 9.83866 9.593 9.35251 7.92232 8.50554C6.25165 7.65858 4.77777 6.46972 3.59637 5.01617C3.1782 5.73443 2.95845 6.55093 2.95962 7.38205C2.95962 9.0133 3.78988 10.4544 5.05212 11.2982C4.30514 11.2747 3.57459 11.0729 2.92138 10.7098V10.7683C2.9216 11.8547 3.29754 12.9076 3.98545 13.7485C4.67337 14.5894 5.63092 15.1665 6.69575 15.3819C6.00232 15.5698 5.27522 15.5975 4.5695 15.4629C4.86973 16.3981 5.45488 17.2159 6.24304 17.8019C7.0312 18.3879 7.98289 18.7128 8.96488 18.731C7.98892 19.4975 6.87145 20.0642 5.67637 20.3985C4.48128 20.7328 3.23202 20.8283 2 20.6795C4.15066 22.0627 6.65423 22.7969 9.21125 22.7945C17.8659 22.7945 22.5988 15.6249 22.5988 9.40705C22.5988 9.20455 22.5931 8.9998 22.5841 8.79955C23.5053 8.13373 24.3004 7.30894 24.932 6.36392L24.9309 6.3628Z" fill="white"/>
</g>
<defs>
<clipPath id="clip0_909_17898">
<rect width="27" height="27" fill="white"/>
</clipPath>
</defs>
</svg>
